<svg xmlns="http://www.w3.org/2000/svg" width="19.401" height="19.435" viewBox="0 0 19.401 19.435">
  <path id="Path_2856" data-name="Path 2856" d="M222.336,5220.981a7.053,7.053,0,0,0-.451-2.392,4.982,4.982,0,0,0-2.837-2.833,6.8,6.8,0,0,0-2.355-.453c-1.036-.054-1.365-.064-4-.064s-2.968,0-4,.064a6.786,6.786,0,0,0-2.354.453,4.982,4.982,0,0,0-2.837,2.833,7.072,7.072,0,0,0-.451,2.348c-.046,1.045-.06,1.368-.06,4s0,2.974.06,4a7.116,7.116,0,0,0,.451,2.359,5.057,5.057,0,0,0,1.119,1.724,4.993,4.993,0,0,0,1.718,1.109,6.78,6.78,0,0,0,2.354.485c1.037.054,1.366.064,4,.064s2.968,0,4-.064a6.819,6.819,0,0,0,2.355-.453,4.959,4.959,0,0,0,1.717-1.11,5.043,5.043,0,0,0,1.119-1.725,7.1,7.1,0,0,0,.451-2.358c.046-1.035.06-1.357.06-4S222.4,5222,222.336,5220.981Zm-9.646,8.931a4.973,4.973,0,1,1,3.522-1.455A4.979,4.979,0,0,1,212.69,5229.913Zm5.179-8.984a1.057,1.057,0,0,1-.445-.086,1.091,1.091,0,0,1-.377-.249,1.165,1.165,0,0,1-.339-.818,1.171,1.171,0,0,1,.088-.454,1.157,1.157,0,0,1,.252-.376,1.067,1.067,0,0,1,.376-.248,1.18,1.18,0,0,1,.889,0,1.067,1.067,0,0,1,.376.248,1.157,1.157,0,0,1,.252.376,1.171,1.171,0,0,1,.088.454A1.157,1.157,0,0,1,217.869,5220.928Z" transform="translate(-202.997 -5215.239)" fill="#fff"/>
</svg>
